<svg width="11" height="7" viewBox="0 0 11 7" fill="none" xmlns="http://www.w3.org/2000/svg">
<g clip-path="url(#clip0_2666_14386)">
<path d="M4.41803 5.83102L0.29303 1.70703C0.200053 1.61416 0.126252 1.50387 0.0759277 1.38248C0.0256034 1.26108 -0.000305176 1.13093 -0.000305176 0.999512C-0.000305176 0.868096 0.0256034 0.737975 0.0759277 0.616577C0.126252 0.495179 0.200053 0.384896 0.29303 0.292023C0.385921 0.198896 0.496247 0.124998 0.617737 0.074585C0.739227 0.0241721 0.869503 -0.00177002 1.00104 -0.00177002C1.13257 -0.00177002 1.26279 0.0241721 1.38428 0.074585C1.50577 0.124998 1.61609 0.198896 1.70898 0.292023V0.292023L5.12701 3.70901L8.54401 0.292023C8.73153 0.104552 8.98587 -0.000762939 9.25104 -0.000762939C9.5162 -0.000762939 9.77048 0.104552 9.95801 0.292023V0.292023C10.051 0.384896 10.1247 0.495179 10.175 0.616577C10.2254 0.737975 10.2513 0.868096 10.2513 0.999512C10.2513 1.13093 10.2254 1.26108 10.175 1.38248C10.1247 1.50387 10.051 1.61416 9.95801 1.70703L5.83301 5.83102C5.74049 5.92404 5.63045 5.99781 5.50928 6.0481C5.38811 6.09838 5.25821 6.12419 5.12701 6.12402V6.12402C4.99537 6.12426 4.86495 6.0985 4.74329 6.04822C4.62162 5.99794 4.5111 5.92413 4.41803 5.83102V5.83102Z" fill="white"/>
</g>
<defs>
<clipPath id="clip0_2666_14386">
<rect width="10.251" height="6.124" fill="white"/>
</clipPath>
</defs>
</svg>
