<svg width="18" height="18" viewBox="0 0 18 18" fill="none" xmlns="http://www.w3.org/2000/svg">
<g clip-path="url(#clip0_2860_14382)">
<path d="M18 9C18 4.02944 13.9706 0 9 0C4.02944 0 0 4.02944 0 9C0 13.9706 4.02944 18 9 18C13.9706 18 18 13.9706 18 9Z" fill="black"/>
<path d="M8.29254 12.2691L4.16754 8.14508C4.07457 8.05221 4.00076 7.94192 3.95044 7.82053C3.90012 7.69913 3.87421 7.56898 3.87421 7.43756C3.87421 7.30614 3.90012 7.17602 3.95044 7.05463C4.00076 6.93323 4.07457 6.82294 4.16754 6.73007C4.26043 6.63694 4.37076 6.56305 4.49225 6.51263C4.61374 6.46222 4.74401 6.43628 4.87555 6.43628C5.00708 6.43628 5.1373 6.46222 5.25879 6.51263C5.38028 6.56305 5.4906 6.63694 5.5835 6.73007L9.00153 10.1471L12.4185 6.73007C12.606 6.5426 12.8604 6.43729 13.1255 6.43729C13.3907 6.43729 13.645 6.5426 13.8325 6.73007C13.9255 6.82294 13.9992 6.93323 14.0496 7.05463C14.0999 7.17602 14.1258 7.30614 14.1258 7.43756C14.1258 7.56898 14.0999 7.69913 14.0496 7.82053C13.9992 7.94192 13.9255 8.05221 13.8325 8.14508L9.70752 12.2691C9.615 12.3621 9.50496 12.4359 9.38379 12.4862C9.26262 12.5365 9.13272 12.5623 9.00153 12.5621C8.86988 12.5623 8.73947 12.5366 8.6178 12.4863C8.49613 12.436 8.38562 12.3622 8.29254 12.2691Z" fill="white"/>
</g>
<defs>
<clipPath id="clip0_2860_14382">
<rect width="18" height="18" fill="white"/>
</clipPath>
</defs>
</svg>
