<svg width="349" height="248" viewBox="0 0 349 248" fill="none" xmlns="http://www.w3.org/2000/svg">
<g clip-path="url(#clip0_85_2959)">
<path d="M107.83 162.45C108.48 162.29 109.48 162.2 110.45 162.2C111.36 162.2 112.39 162.34 113.12 162.85C113.81 163.31 114.21 164.03 114.21 165C114.21 166.25 113.63 167.22 112.86 167.82C112.04 168.46 110.86 168.76 109.64 168.76C109.29 168.76 108.98 168.71 108.76 168.7L108.07 172.32H105.97L107.83 162.45ZM109.08 166.94C109.3 166.98 109.54 167.02 109.92 167.02C111.19 167.02 112.05 166.2 112.05 165.19C112.05 164.23 111.35 163.92 110.53 163.92C110.12 163.92 109.83 163.94 109.65 163.97L109.08 166.94Z" fill="#666464"/>
<path d="M120.13 171.9C119.28 172.34 118.22 172.48 117.4 172.48C115.33 172.48 114.26 171.31 114.26 169.4C114.26 167.18 115.87 164.86 118.51 164.86C119.99 164.86 121.05 165.7 121.05 167.05C121.05 168.9 119.25 169.57 116.31 169.49C116.33 169.71 116.4 170.03 116.55 170.24C116.83 170.62 117.33 170.81 117.96 170.81C118.75 170.81 119.42 170.63 120 170.35L120.13 171.9ZM118.24 166.43C117.24 166.43 116.66 167.27 116.51 167.93C118.2 167.94 119.03 167.72 119.03 167.04C119.03 166.68 118.73 166.43 118.24 166.43Z" fill="#666464"/>
<path d="M121.5 172.32L122.31 167.99C122.52 166.88 122.61 165.67 122.68 165.04H124.55C124.5 165.53 124.47 166.03 124.41 166.53H124.46C124.98 165.56 125.78 164.87 126.78 164.87C126.91 164.87 127.05 164.87 127.18 164.89L126.77 166.98C126.67 166.96 126.54 166.96 126.42 166.96C125.05 166.96 124.4 168.19 124.14 169.62L123.63 172.33H121.5V172.32Z" fill="#666464"/>
<path d="M127.27 170.4C127.69 170.6 128.46 170.91 129.16 170.91C129.77 170.91 130.09 170.61 130.09 170.25C130.09 169.89 129.85 169.64 129.18 169.31C128.34 168.89 127.65 168.28 127.65 167.37C127.65 165.85 128.97 164.85 130.86 164.85C131.71 164.85 132.37 165.03 132.74 165.22L132.22 166.74C131.92 166.6 131.39 166.43 130.77 166.43C130.19 166.43 129.82 166.67 129.82 167.07C129.82 167.37 130.12 167.62 130.7 167.91C131.5 168.31 132.34 168.89 132.34 169.91C132.34 171.58 130.92 172.48 128.98 172.47C128.05 172.46 127.19 172.22 126.76 171.9L127.27 170.4Z" fill="#666464"/>
<path d="M140.9 167.86C140.9 170.53 139.06 172.48 136.54 172.48C134.69 172.48 133.45 171.28 133.45 169.46C133.45 166.94 135.21 164.85 137.8 164.85C139.76 164.85 140.9 166.19 140.9 167.86ZM135.68 169.43C135.68 170.29 136.09 170.85 136.86 170.85C138 170.85 138.67 169.12 138.67 167.88C138.67 167.21 138.38 166.5 137.53 166.5C136.29 166.49 135.68 168.3 135.68 169.43Z" fill="#666464"/>
<path d="M141.51 172.32L142.43 167.41C142.62 166.48 142.73 165.69 142.83 165.04H144.73L144.59 166.25H144.63C145.31 165.31 146.21 164.87 147.18 164.87C148.37 164.87 149.06 165.61 149.06 166.87C149.06 167.2 149 167.74 148.94 168.1L148.14 172.33H145.98L146.76 168.3C146.8 168.04 146.83 167.76 146.83 167.49C146.83 166.96 146.65 166.61 146.1 166.61C145.4 166.61 144.58 167.49 144.28 169.1L143.67 172.33H141.51V172.32Z" fill="#666464"/>
<path d="M154.69 172.32C154.71 171.89 154.75 171.4 154.78 170.88H154.75C154.08 172.09 153.14 172.48 152.29 172.48C150.98 172.48 150.09 171.47 150.09 169.95C150.09 167.49 151.73 164.86 155.3 164.86C156.19 164.86 157.11 165.03 157.72 165.22L156.96 169.04C156.78 169.98 156.63 171.41 156.66 172.32H154.69ZM155.3 166.55C155.15 166.52 154.95 166.49 154.72 166.49C153.33 166.49 152.33 168.19 152.33 169.55C152.33 170.26 152.61 170.76 153.2 170.76C153.84 170.76 154.64 170.03 154.98 168.24L155.3 166.55Z" fill="#666464"/>
<path d="M158.16 172.32L160.19 161.74H162.34L160.31 172.32H158.16Z" fill="#666464"/>
<path d="M164.85 172.32L166.24 165.03H168.38L167 172.32H164.85ZM167.56 164.12C166.97 164.12 166.53 163.7 166.53 163.07C166.53 162.34 167.11 161.85 167.76 161.85C168.41 161.85 168.85 162.27 168.85 162.91C168.85 163.67 168.27 164.12 167.59 164.12H167.56Z" fill="#666464"/>
<path d="M168.78 172.32L169.7 167.41C169.9 166.48 170 165.69 170.11 165.04H172L171.86 166.25H171.89C172.57 165.31 173.47 164.87 174.44 164.87C175.63 164.87 176.32 165.61 176.32 166.87C176.32 167.2 176.26 167.74 176.2 168.1L175.39 172.33H173.23L174 168.3C174.05 168.04 174.07 167.76 174.07 167.49C174.07 166.96 173.89 166.61 173.35 166.61C172.65 166.61 171.83 167.49 171.53 169.1L170.92 172.33H168.78V172.32Z" fill="#666464"/>
<path d="M177.43 172.32L178.5 166.65H177.55L177.86 165.02H178.82L178.88 164.64C179.02 163.77 179.37 162.86 180.1 162.26C180.69 161.77 181.46 161.57 182.17 161.57C182.69 161.57 183.09 161.65 183.31 161.75L182.93 163.45C182.75 163.38 182.53 163.33 182.24 163.33C181.54 163.33 181.13 163.93 180.99 164.66L180.91 165.02H182.36L182.05 166.65H180.62L179.56 172.32H177.43Z" fill="#666464"/>
<path d="M189.78 167.86C189.78 170.53 187.94 172.48 185.43 172.48C183.57 172.48 182.34 171.28 182.34 169.46C182.34 166.94 184.1 164.85 186.69 164.85C188.64 164.85 189.78 166.19 189.78 167.86ZM184.55 169.43C184.55 170.29 184.97 170.85 185.73 170.85C186.88 170.85 187.55 169.12 187.55 167.88C187.55 167.21 187.25 166.5 186.41 166.5C185.17 166.49 184.55 168.3 184.55 169.43Z" fill="#666464"/>
<path d="M190.4 172.32L191.22 167.99C191.43 166.88 191.52 165.67 191.6 165.04H193.46C193.42 165.53 193.39 166.03 193.33 166.53H193.38C193.9 165.56 194.71 164.87 195.71 164.87C195.84 164.87 195.98 164.87 196.11 164.89L195.7 166.98C195.6 166.96 195.48 166.96 195.36 166.96C193.98 166.96 193.34 168.19 193.07 169.62L192.56 172.33H190.4V172.32Z" fill="#666464"/>
<path d="M195.91 172.32L196.82 167.41C196.99 166.48 197.1 165.69 197.19 165.04H199.03L198.9 166.22H198.93C199.6 165.28 200.49 164.86 201.43 164.86C202.59 164.86 203.1 165.61 203.16 166.25C203.82 165.31 204.72 164.86 205.68 164.86C206.8 164.86 207.45 165.59 207.45 166.83C207.45 167.13 207.39 167.71 207.33 168.08L206.54 172.33H204.45L205.19 168.33C205.24 168.05 205.29 167.74 205.29 167.45C205.29 166.94 205.06 166.59 204.57 166.59C203.86 166.59 203.15 167.55 202.86 169.02L202.25 172.32H200.18L200.94 168.32C200.99 168.02 201.03 167.74 201.03 167.49C201.03 166.98 200.87 166.59 200.35 166.59C199.62 166.59 198.84 167.6 198.59 169.05L198 172.33H195.91V172.32Z" fill="#666464"/>
<path d="M213.07 172.32C213.09 171.89 213.13 171.4 213.16 170.88H213.13C212.46 172.09 211.52 172.48 210.67 172.48C209.35 172.48 208.46 171.47 208.46 169.95C208.46 167.49 210.09 164.86 213.68 164.86C214.56 164.86 215.49 165.03 216.09 165.22L215.34 169.04C215.15 169.98 215.01 171.41 215.04 172.32H213.07ZM213.69 166.55C213.53 166.52 213.33 166.49 213.11 166.49C211.72 166.49 210.71 168.19 210.71 169.55C210.71 170.26 210.99 170.76 211.59 170.76C212.23 170.76 213.03 170.03 213.36 168.24L213.69 166.55Z" fill="#666464"/>
<path d="M220.7 163.05L220.33 165.02H221.89L221.56 166.65H220.01L219.52 169.13C219.45 169.42 219.4 169.8 219.4 170.06C219.4 170.42 219.55 170.67 220.02 170.67C220.2 170.67 220.43 170.67 220.6 170.64L220.36 172.32C220.08 172.43 219.54 172.49 219.1 172.49C217.8 172.49 217.19 171.84 217.19 170.91C217.19 170.52 217.23 170.12 217.35 169.56L217.9 166.66H216.98L217.27 165.03H218.21L218.48 163.66L220.7 163.05Z" fill="#666464"/>
<path d="M221.76 172.32L223.15 165.03H225.3L223.91 172.32H221.76ZM224.48 164.12C223.88 164.12 223.45 163.7 223.45 163.07C223.45 162.34 224.03 161.85 224.69 161.85C225.33 161.85 225.78 162.27 225.78 162.91C225.78 163.67 225.2 164.12 224.51 164.12H224.48Z" fill="#666464"/>
<path d="M233.41 167.86C233.41 170.53 231.57 172.48 229.05 172.48C227.21 172.48 225.97 171.28 225.97 169.46C225.97 166.94 227.73 164.85 230.32 164.85C232.28 164.85 233.41 166.19 233.41 167.86ZM228.18 169.43C228.18 170.29 228.6 170.85 229.36 170.85C230.51 170.85 231.17 169.12 231.17 167.88C231.17 167.21 230.87 166.5 230.02 166.5C228.8 166.49 228.18 168.3 228.18 169.43Z" fill="#666464"/>
<path d="M234.03 172.32L234.95 167.41C235.14 166.48 235.25 165.69 235.35 165.04H237.25L237.11 166.25H237.14C237.83 165.31 238.72 164.87 239.69 164.87C240.89 164.87 241.57 165.61 241.57 166.87C241.57 167.2 241.51 167.74 241.46 168.1L240.65 172.33H238.49L239.26 168.3C239.31 168.04 239.34 167.76 239.34 167.49C239.34 166.96 239.17 166.61 238.61 166.61C237.9 166.61 237.08 167.49 236.79 169.1L236.18 172.33H234.03V172.32Z" fill="#666464"/>
<path d="M107.85 185.29C107.64 185.07 107.49 184.85 107.31 184.61C106.67 185.08 105.84 185.46 104.62 185.46C102.74 185.46 101.5 184.43 101.5 182.81C101.5 181.29 102.63 180.32 103.93 179.71L103.94 179.67C103.63 179.15 103.39 178.58 103.39 177.97C103.39 176.35 104.68 175.09 106.54 175.09C108.04 175.09 109.09 175.98 109.09 177.32C109.09 178.49 108.21 179.35 106.6 180.1V180.14C107.01 180.76 107.54 181.51 107.95 182.07C108.59 181.34 109.02 180.41 109.32 179.52H111.3C110.76 181.06 110.06 182.35 108.93 183.43C109.32 184 109.83 184.65 110.39 185.31H107.85V185.29ZM106.45 183.37C105.94 182.71 105.26 181.76 104.68 180.85C104.22 181.18 103.69 181.69 103.69 182.44C103.69 183.22 104.21 183.86 105.22 183.86C105.77 183.85 106.15 183.64 106.45 183.37ZM105.32 177.73C105.32 178.19 105.49 178.61 105.77 178.98C106.55 178.63 107.18 178.07 107.18 177.33C107.18 176.86 106.93 176.46 106.35 176.46C105.77 176.46 105.32 177.01 105.32 177.73Z" fill="#666464"/>
<path d="M118.25 175.24L116.34 185.29H114.2L116.11 175.24H118.25Z" fill="#666464"/>
<path d="M118.21 185.29L119.14 180.37C119.33 179.45 119.44 178.66 119.54 178H121.43L121.3 179.21H121.33C122.01 178.27 122.91 177.83 123.87 177.83C125.06 177.83 125.76 178.56 125.76 179.83C125.76 180.16 125.7 180.7 125.64 181.05L124.84 185.28H122.68L123.46 181.24C123.51 180.99 123.54 180.7 123.54 180.44C123.54 179.92 123.35 179.56 122.81 179.56C122.11 179.56 121.29 180.44 120.99 182.05L120.38 185.28H118.21V185.29Z" fill="#666464"/>
<path d="M126.86 185.29L127.94 179.63H126.99L127.3 177.99H128.25L128.3 177.62C128.45 176.75 128.8 175.84 129.53 175.23C130.11 174.74 130.89 174.55 131.6 174.55C132.12 174.55 132.51 174.62 132.73 174.73L132.36 176.43C132.19 176.36 131.95 176.31 131.68 176.31C130.98 176.31 130.56 176.91 130.43 177.64L130.36 178H131.8L131.49 179.64H130.06L129 185.3H126.86V185.29Z" fill="#666464"/>
<path d="M139.2 180.83C139.2 183.5 137.36 185.45 134.84 185.45C133 185.45 131.75 184.24 131.75 182.42C131.75 179.9 133.51 177.81 136.11 177.81C138.07 177.82 139.2 179.16 139.2 180.83ZM133.98 182.4C133.98 183.25 134.4 183.82 135.16 183.82C136.31 183.82 136.98 182.09 136.98 180.85C136.98 180.19 136.68 179.47 135.83 179.47C134.59 179.46 133.98 181.27 133.98 182.4Z" fill="#666464"/>
<path d="M139.83 185.29L140.65 180.95C140.86 179.85 140.95 178.63 141.03 178H142.89C142.84 178.49 142.82 178.98 142.76 179.49H142.8C143.33 178.52 144.13 177.83 145.13 177.83C145.27 177.83 145.4 177.83 145.53 177.84L145.12 179.93C145.01 179.92 144.89 179.92 144.77 179.92C143.4 179.92 142.76 181.14 142.49 182.57L141.98 185.28H139.83V185.29Z" fill="#666464"/>
<path d="M145.35 185.29L146.26 180.37C146.42 179.45 146.54 178.66 146.63 178H148.46L148.32 179.18H148.35C149.02 178.24 149.91 177.82 150.85 177.82C152.01 177.82 152.52 178.56 152.58 179.21C153.24 178.27 154.14 177.82 155.11 177.82C156.22 177.82 156.88 178.55 156.88 179.79C156.88 180.09 156.82 180.67 156.76 181.04L155.97 185.29H153.89L154.62 181.29C154.68 181.01 154.72 180.7 154.72 180.41C154.72 179.91 154.49 179.55 154.01 179.55C153.29 179.55 152.58 180.5 152.29 181.98L151.68 185.29H149.61L150.37 181.28C150.42 180.98 150.46 180.7 150.46 180.45C150.46 179.94 150.3 179.56 149.78 179.56C149.04 179.56 148.27 180.57 148.02 182.01L147.42 185.29H145.35Z" fill="#666464"/>
<path d="M162.51 185.29C162.53 184.86 162.57 184.37 162.6 183.85H162.57C161.91 185.05 160.97 185.46 160.11 185.46C158.8 185.46 157.91 184.45 157.91 182.92C157.91 180.47 159.55 177.84 163.13 177.84C164.01 177.84 164.93 178.01 165.54 178.2L164.78 182.01C164.6 182.95 164.45 184.38 164.48 185.29H162.51ZM163.12 179.52C162.95 179.49 162.76 179.47 162.54 179.47C161.16 179.47 160.14 181.17 160.14 182.52C160.14 183.24 160.42 183.73 161.02 183.73C161.66 183.73 162.45 183 162.79 181.21L163.12 179.52Z" fill="#666464"/>
<path d="M170.13 176.02L169.76 177.99H171.33L171 179.63H169.45L168.96 182.11C168.9 182.39 168.84 182.78 168.84 183.03C168.84 183.39 168.98 183.64 169.46 183.64C169.64 183.64 169.86 183.64 170.04 183.6L169.8 185.29C169.52 185.4 168.98 185.46 168.53 185.46C167.24 185.46 166.62 184.8 166.62 183.88C166.62 183.5 166.66 183.09 166.79 182.52L167.34 179.63H166.42L166.71 177.99H167.66L167.93 176.62L170.13 176.02Z" fill="#666464"/>
<path d="M171.2 185.29L172.59 178H174.74L173.35 185.29H171.2ZM173.91 177.09C173.31 177.09 172.88 176.67 172.88 176.04C172.88 175.31 173.46 174.82 174.12 174.82C174.76 174.82 175.21 175.24 175.21 175.88C175.21 176.64 174.63 177.09 173.94 177.09H173.91Z" fill="#666464"/>
<path d="M182.84 180.83C182.84 183.5 181.01 185.45 178.49 185.45C176.64 185.45 175.41 184.24 175.41 182.42C175.41 179.9 177.16 177.81 179.76 177.81C181.7 177.82 182.84 179.16 182.84 180.83ZM177.62 182.4C177.62 183.25 178.04 183.82 178.8 183.82C179.95 183.82 180.62 182.09 180.62 180.85C180.62 180.19 180.33 179.47 179.48 179.47C178.23 179.46 177.62 181.27 177.62 182.4Z" fill="#666464"/>
<path d="M183.46 185.29L184.39 180.37C184.58 179.45 184.68 178.66 184.79 178H186.68L186.55 179.21H186.58C187.26 178.27 188.16 177.83 189.13 177.83C190.33 177.83 191.01 178.56 191.01 179.83C191.01 180.16 190.95 180.7 190.89 181.05L190.08 185.28H187.92L188.7 181.24C188.74 180.99 188.77 180.7 188.77 180.44C188.77 179.92 188.59 179.56 188.04 179.56C187.34 179.56 186.52 180.44 186.22 182.05L185.61 185.28H183.46V185.29Z" fill="#666464"/>
<path d="M195.12 182.96C195.71 183.32 196.56 183.6 197.49 183.6C198.33 183.6 199.09 183.21 199.09 182.44C199.09 181.86 198.66 181.5 197.73 181.01C196.67 180.44 195.65 179.65 195.65 178.36C195.65 176.31 197.42 175.1 199.6 175.1C200.82 175.1 201.54 175.37 201.97 175.59L201.3 177.38C200.97 177.2 200.26 176.93 199.43 176.95C198.42 176.95 197.9 177.44 197.9 178C197.9 178.58 198.52 178.95 199.36 179.43C200.58 180.06 201.35 180.88 201.35 182.08C201.35 184.32 199.5 185.47 197.27 185.47C195.86 185.46 194.86 185.1 194.39 184.76L195.12 182.96Z" fill="#666464"/>
<path d="M208.4 184.88C207.55 185.31 206.49 185.46 205.67 185.46C203.6 185.46 202.53 184.29 202.53 182.38C202.53 180.15 204.14 177.84 206.77 177.84C208.25 177.84 209.31 178.67 209.31 180.04C209.31 181.89 207.5 182.56 204.57 182.48C204.58 182.69 204.66 183.02 204.81 183.22C205.09 183.59 205.59 183.79 206.21 183.79C207 183.79 207.67 183.61 208.25 183.33L208.4 184.88ZM206.5 179.4C205.5 179.4 204.92 180.24 204.77 180.91C206.45 180.92 207.29 180.7 207.29 180.01C207.29 179.66 206.99 179.4 206.5 179.4Z" fill="#666464"/>
<path d="M215.2 185.05C214.74 185.28 213.99 185.44 213.13 185.44C211.33 185.44 210.06 184.34 210.06 182.46C210.06 179.86 212.05 177.83 214.82 177.83C215.44 177.83 215.98 177.95 216.31 178.07L215.77 179.73C215.52 179.63 215.22 179.56 214.79 179.56C213.27 179.56 212.31 180.85 212.31 182.22C212.31 183.22 212.95 183.73 213.74 183.73C214.37 183.73 214.82 183.58 215.19 183.43L215.2 185.05Z" fill="#666464"/>
<path d="M224.2 178L223.28 182.92C223.1 183.85 222.97 184.64 222.89 185.29H220.99L221.13 184.11L221.1 184.09C220.35 185.04 219.48 185.45 218.6 185.45C217.42 185.45 216.73 184.79 216.73 183.41C216.73 183.02 216.77 182.57 216.87 182.06L217.65 177.99H219.79L219.05 181.9C218.99 182.24 218.95 182.6 218.95 182.86C218.95 183.33 219.14 183.7 219.68 183.7C220.41 183.7 221.15 182.81 221.43 181.37L222.07 177.99H224.2V178Z" fill="#666464"/>
<path d="M224.64 185.29L225.46 180.95C225.67 179.85 225.76 178.63 225.84 178H227.7C227.66 178.49 227.63 178.98 227.57 179.49H227.62C228.14 178.52 228.95 177.83 229.94 177.83C230.07 177.83 230.21 177.83 230.34 177.84L229.93 179.93C229.83 179.92 229.71 179.92 229.59 179.92C228.22 179.92 227.58 181.14 227.31 182.57L226.8 185.28H224.64V185.29Z" fill="#666464"/>
<path d="M230.15 185.29L231.54 178H233.69L232.3 185.29H230.15ZM232.85 177.09C232.26 177.09 231.83 176.67 231.83 176.04C231.83 175.31 232.41 174.82 233.06 174.82C233.7 174.82 234.15 175.24 234.15 175.88C234.15 176.64 233.57 177.09 232.89 177.09H232.85Z" fill="#666464"/>
<path d="M238.21 176.02L237.83 177.99H239.4L239.07 179.63H237.52L237.03 182.11C236.97 182.39 236.91 182.78 236.91 183.03C236.91 183.39 237.05 183.64 237.54 183.64C237.71 183.64 237.94 183.64 238.11 183.6L237.87 185.29C237.59 185.4 237.05 185.46 236.6 185.46C235.3 185.46 234.69 184.8 234.69 183.88C234.69 183.5 234.73 183.09 234.85 182.52L235.4 179.63H234.47L234.77 177.99H235.71L235.97 176.62L238.21 176.02Z" fill="#666464"/>
<path d="M242.12 178L242.57 181.18C242.67 181.94 242.75 182.46 242.81 182.92H242.84C243 182.48 243.17 182.01 243.48 181.22L244.81 178H247.07L244.46 183.25C243.5 185.19 242.63 186.5 241.66 187.41C240.81 188.21 239.8 188.59 239.32 188.66L238.84 186.81C239.19 186.71 239.66 186.53 240.08 186.24C240.57 185.9 240.99 185.46 241.27 184.98C241.33 184.86 241.33 184.77 241.3 184.62L239.88 178H242.12Z" fill="#666464"/>
<path d="M139.45 198.26L140.06 194.11C140.22 193.02 140.44 191.64 140.73 190.19H140.68C140.13 191.49 139.5 192.87 138.95 193.98L136.89 198.09H135.22L134.87 194.02C134.78 192.92 134.71 191.54 134.64 190.19H134.61C134.32 191.52 134.03 193.02 133.78 194.11L132.78 198.26H130.81L133.33 188.21H136.21L136.52 192.03C136.58 192.97 136.68 194.12 136.7 195.23H136.76C137.15 194.11 137.69 192.94 138.12 192.03L139.99 188.21H142.89L141.53 198.26H139.45Z" fill="#666464"/>
<path d="M147.98 198.26C148 197.83 148.04 197.34 148.07 196.81H148.04C147.37 198.02 146.44 198.42 145.58 198.42C144.27 198.42 143.37 197.4 143.37 195.88C143.37 193.42 145.01 190.8 148.59 190.8C149.47 190.8 150.4 190.96 151.01 191.16L150.25 194.97C150.07 195.91 149.92 197.34 149.95 198.25H147.98V198.26ZM148.59 192.49C148.43 192.46 148.23 192.43 148.01 192.43C146.62 192.43 145.62 194.13 145.62 195.49C145.62 196.2 145.9 196.7 146.49 196.7C147.13 196.7 147.93 195.97 148.26 194.18L148.59 192.49Z" fill="#666464"/>
<path d="M151.5 198.26L152.43 193.34C152.62 192.41 152.72 191.63 152.83 190.97H154.72L154.59 192.18H154.62C155.3 191.24 156.2 190.81 157.17 190.81C158.37 190.81 159.05 191.54 159.05 192.81C159.05 193.13 158.99 193.67 158.93 194.03L158.12 198.27H155.96L156.73 194.23C156.78 193.98 156.8 193.7 156.8 193.43C156.8 192.91 156.62 192.55 156.07 192.55C155.37 192.55 154.55 193.43 154.25 195.04L153.64 198.28H151.5V198.26Z" fill="#666464"/>
<path d="M164.69 198.26C164.71 197.83 164.75 197.34 164.78 196.81H164.75C164.08 198.02 163.14 198.42 162.29 198.42C160.97 198.42 160.08 197.4 160.08 195.88C160.08 193.42 161.72 190.8 165.3 190.8C166.18 190.8 167.11 190.96 167.71 191.16L166.95 194.97C166.77 195.91 166.62 197.34 166.65 198.25H164.69V198.26ZM165.3 192.49C165.14 192.46 164.94 192.43 164.72 192.43C163.33 192.43 162.32 194.13 162.32 195.49C162.32 196.2 162.6 196.7 163.2 196.7C163.84 196.7 164.63 195.97 164.97 194.18L165.3 192.49Z" fill="#666464"/>
<path d="M168.63 199.27C169.04 199.51 169.92 199.67 170.54 199.67C171.62 199.67 172.4 199.2 172.72 197.73L172.84 197.11H172.81C172.24 197.86 171.59 198.2 170.72 198.2C169.28 198.2 168.4 197.02 168.39 195.59C168.37 193.19 170.1 190.81 173.28 190.81C174.31 190.81 175.21 191 175.98 191.32L174.87 197.33C174.62 198.67 174.2 199.86 173.34 200.56C172.55 201.18 171.49 201.38 170.52 201.38C169.54 201.38 168.64 201.2 168.13 200.91L168.63 199.27ZM173.64 192.58C173.48 192.51 173.16 192.45 172.86 192.45C171.57 192.45 170.63 193.89 170.63 195.27C170.63 196.01 170.96 196.54 171.61 196.54C172.32 196.54 173.01 195.75 173.25 194.53L173.64 192.58Z" fill="#666464"/>
<path d="M182.56 197.84C181.71 198.27 180.65 198.42 179.83 198.42C177.75 198.42 176.69 197.24 176.69 195.33C176.69 193.11 178.29 190.8 180.93 190.8C182.41 190.8 183.47 191.63 183.47 192.99C183.47 194.84 181.66 195.51 178.73 195.43C178.74 195.64 178.82 195.97 178.97 196.18C179.25 196.55 179.74 196.74 180.37 196.74C181.16 196.74 181.84 196.56 182.42 196.28L182.56 197.84ZM180.67 192.38C179.66 192.38 179.09 193.21 178.94 193.88C180.63 193.9 181.46 193.67 181.46 192.99C181.46 192.63 181.16 192.38 180.67 192.38Z" fill="#666464"/>
<path d="M183.92 198.26L184.83 193.34C184.99 192.41 185.11 191.63 185.21 190.97H187.04L186.9 192.14H186.93C187.6 191.2 188.49 190.78 189.43 190.78C190.6 190.78 191.1 191.53 191.17 192.17C191.82 191.23 192.73 190.78 193.69 190.78C194.8 190.78 195.47 191.51 195.47 192.75C195.47 193.05 195.41 193.63 195.35 194.01L194.56 198.26H192.47L193.21 194.26C193.26 193.98 193.31 193.66 193.31 193.38C193.31 192.87 193.09 192.52 192.6 192.52C191.89 192.52 191.17 193.47 190.88 194.94L190.27 198.25H188.19L188.95 194.24C189 193.94 189.04 193.66 189.04 193.41C189.04 192.9 188.88 192.52 188.36 192.52C187.62 192.52 186.85 193.53 186.6 194.97L186 198.25H183.92V198.26Z" fill="#666464"/>
<path d="M202.4 197.84C201.55 198.27 200.49 198.42 199.67 198.42C197.59 198.42 196.52 197.24 196.52 195.33C196.52 193.11 198.13 190.8 200.77 190.8C202.24 190.8 203.3 191.63 203.3 192.99C203.3 194.84 201.5 195.51 198.56 195.43C198.57 195.64 198.65 195.97 198.8 196.18C199.08 196.55 199.58 196.74 200.21 196.74C201 196.74 201.67 196.56 202.25 196.28L202.4 197.84ZM200.5 192.38C199.51 192.38 198.92 193.21 198.77 193.88C200.45 193.9 201.29 193.67 201.29 192.99C201.3 192.63 201 192.38 200.5 192.38Z" fill="#666464"/>
<path d="M203.75 198.26L204.68 193.34C204.86 192.41 204.98 191.63 205.08 190.97H206.97L206.84 192.18H206.87C207.56 191.24 208.45 190.81 209.42 190.81C210.61 190.81 211.3 191.54 211.3 192.81C211.3 193.13 211.24 193.67 211.18 194.03L210.37 198.27H208.21L208.98 194.23C209.02 193.98 209.05 193.7 209.05 193.43C209.05 192.91 208.87 192.55 208.32 192.55C207.62 192.55 206.8 193.43 206.5 195.04L205.89 198.28H203.75V198.26Z" fill="#666464"/>
<path d="M216.26 188.99L215.89 190.96H217.46L217.13 192.6H215.58L215.09 195.08C215.03 195.37 214.97 195.75 214.97 196C214.97 196.36 215.12 196.61 215.6 196.61C215.78 196.61 216 196.61 216.18 196.58L215.94 198.27C215.66 198.38 215.12 198.43 214.67 198.43C213.37 198.43 212.76 197.77 212.76 196.85C212.76 196.46 212.81 196.06 212.92 195.5L213.47 192.6H212.55L212.84 190.96H213.78L214.05 189.59L216.26 188.99Z" fill="#666464"/>
<path d="M151.8 208.91C152.4 209.27 153.24 209.55 154.17 209.55C155 209.55 155.76 209.17 155.76 208.39C155.76 207.81 155.33 207.45 154.4 206.96C153.34 206.4 152.33 205.61 152.33 204.3C152.33 202.26 154.09 201.04 156.28 201.04C157.5 201.04 158.22 201.31 158.65 201.53L157.98 203.32C157.65 203.14 156.94 202.88 156.12 202.89C155.1 202.89 154.58 203.38 154.58 203.93C154.58 204.52 155.19 204.89 156.04 205.37C157.26 206 158.04 206.82 158.04 208.03C158.04 210.27 156.19 211.41 153.96 211.41C152.55 211.4 151.56 211.04 151.08 210.7L151.8 208.91Z" fill="#666464"/>
<path d="M161.24 203.94L161.69 207.12C161.79 207.88 161.87 208.4 161.93 208.86H161.96C162.13 208.41 162.29 207.95 162.6 207.16L163.93 203.94H166.2L163.59 209.19C162.62 211.13 161.75 212.44 160.79 213.35C159.94 214.16 158.92 214.53 158.44 214.61L157.96 212.76C158.3 212.66 158.78 212.48 159.2 212.19C159.69 211.85 160.11 211.41 160.4 210.92C160.46 210.8 160.46 210.72 160.43 210.57L159 203.95H161.24V203.94Z" fill="#666464"/>
<path d="M166.15 209.31C166.57 209.52 167.34 209.82 168.05 209.82C168.66 209.82 168.97 209.52 168.97 209.17C168.97 208.81 168.73 208.55 168.06 208.23C167.22 207.81 166.53 207.2 166.53 206.29C166.53 204.77 167.85 203.77 169.73 203.77C170.58 203.77 171.25 203.95 171.61 204.14L171.09 205.66C170.79 205.53 170.26 205.35 169.64 205.35C169.06 205.35 168.69 205.59 168.69 206C168.69 206.3 168.98 206.55 169.57 206.83C170.37 207.24 171.21 207.82 171.21 208.83C171.21 210.5 169.79 211.41 167.85 211.4C166.93 211.38 166.06 211.15 165.63 210.83L166.15 209.31Z" fill="#666464"/>
<path d="M176.2 201.96L175.82 203.92H177.38L177.05 205.56H175.5L175.01 208.03C174.95 208.32 174.9 208.7 174.9 208.96C174.9 209.31 175.04 209.57 175.52 209.57C175.7 209.57 175.93 209.57 176.1 209.54L175.86 211.23C175.58 211.33 175.04 211.39 174.59 211.39C173.29 211.39 172.68 210.73 172.68 209.81C172.68 209.42 172.73 209.02 172.85 208.45L173.4 205.56H172.47L172.77 203.92H173.71L173.98 202.55L176.2 201.96Z" fill="#666464"/>
<path d="M183.29 210.81C182.43 211.25 181.38 211.39 180.56 211.39C178.49 211.39 177.41 210.21 177.41 208.31C177.41 206.09 179.02 203.77 181.66 203.77C183.13 203.77 184.19 204.61 184.19 205.96C184.19 207.81 182.39 208.48 179.45 208.41C179.46 208.62 179.53 208.95 179.69 209.16C179.97 209.53 180.47 209.72 181.09 209.72C181.87 209.72 182.55 209.54 183.13 209.26L183.29 210.81ZM181.39 205.34C180.38 205.34 179.81 206.17 179.66 206.85C181.34 206.87 182.18 206.64 182.18 205.96C182.18 205.6 181.88 205.34 181.39 205.34Z" fill="#666464"/>
<path d="M184.64 211.23L185.55 206.31C185.72 205.39 185.83 204.6 185.92 203.94H187.75L187.62 205.12H187.64C188.31 204.18 189.21 203.76 190.14 203.76C191.3 203.76 191.81 204.51 191.87 205.15C192.53 204.21 193.43 203.76 194.39 203.76C195.51 203.76 196.16 204.49 196.16 205.72C196.16 206.02 196.1 206.6 196.05 206.98L195.26 211.23H193.17L193.9 207.23C193.96 206.94 194 206.63 194 206.35C194 205.84 193.78 205.49 193.29 205.49C192.57 205.49 191.85 206.44 191.58 207.92L190.97 211.23H188.9L189.66 207.22C189.7 206.92 189.75 206.64 189.75 206.38C189.75 205.88 189.59 205.48 189.06 205.48C188.33 205.48 187.55 206.49 187.3 207.94L186.7 211.22H184.64V211.23Z" fill="#666464"/>
<path d="M208.49 35.6602H201.73V41.2802C201.73 42.1002 202.18 42.5102 203.07 42.5102H209.74V36.8802C209.77 36.0702 209.36 35.6602 208.49 35.6602ZM207.11 40.8702H204.67C204.41 40.8702 204.28 40.7302 204.28 40.4802V37.3102H206.8C207.02 37.3102 207.11 37.4202 207.11 37.6502V40.8702Z" fill="#666464"/>
<path d="M207.85 43.4502V44.9102H203.76V46.5502H207.57C207 47.7902 205.58 48.5702 203.3 48.8902L203.96 50.4402C205.14 50.3202 206.23 50.0402 207.18 49.5902C208.18 49.1202 208.86 48.5502 209.22 47.8802C209.65 48.5302 210.36 49.1002 211.38 49.5802C212.32 50.0302 213.29 50.3002 214.28 50.4002L214.96 48.8702C212.79 48.5502 211.39 47.7802 210.74 46.5602H214.53V44.9202H210.42V43.4602H207.85V43.4502Z" fill="#666464"/>
<path d="M214.27 35.4602H211.73V43.7102H214.27V35.4602Z" fill="#666464"/>
<path d="M147.43 49.6701C148.19 49.0301 148.59 48.2001 148.59 47.1601C148.59 46.1101 148.19 45.2701 147.43 44.6401C146.63 43.9701 145.53 43.6401 144.15 43.6401C142.77 43.6401 141.68 43.9701 140.88 44.6401C140.11 45.2701 139.73 46.1101 139.73 47.1601C139.73 48.2001 140.12 49.0401 140.9 49.6901C141.69 50.3401 142.77 50.6601 144.15 50.6601C145.53 50.6601 146.62 50.3301 147.43 49.6701ZM142.2 47.1501C142.2 46.6201 142.38 46.1901 142.73 45.8601C143.08 45.5301 143.57 45.3701 144.14 45.3701C144.73 45.3701 145.21 45.5301 145.57 45.8601C145.93 46.1901 146.11 46.6201 146.11 47.1501C146.11 47.6701 145.93 48.0901 145.57 48.4201C145.21 48.7501 144.73 48.9101 144.14 48.9101C143.56 48.9101 143.08 48.7501 142.73 48.4201C142.37 48.1001 142.2 47.6701 142.2 47.1501Z" fill="#666464"/>
<path d="M146.13 38.38H143.37V39.98H146.13V43.58H148.65V35.49H146.13V38.38Z" fill="#666464"/>
<path d="M135.42 42.1602L136.45 43.6402C137.31 43.3202 138.08 42.8602 138.75 42.2602C139.43 41.6602 139.86 41.0602 140.07 40.4402C140.38 41.0502 140.86 41.6102 141.51 42.1202C142.15 42.6402 142.84 43.0002 143.57 43.2202L144.53 41.7802C142.39 40.8902 141.32 39.4802 141.32 37.5002V37.3502H144.09V35.7002H135.95V37.3602H138.72V37.5402C138.71 39.6402 137.62 41.1802 135.42 42.1602Z" fill="#666464"/>
<path d="M151.06 45.7202V47.3702H165.45V45.7202H159.51V43.4202H162.27C163.22 43.4202 163.67 42.9702 163.67 42.0602V35.7302H161.14V37.8102H155.35V35.7302H152.81V42.0602C152.81 42.9602 153.28 43.4202 154.23 43.4202H156.97V45.7202H151.06ZM155.85 41.7602C155.52 41.7602 155.36 41.6102 155.36 41.3102V39.4502H161.15V41.3102C161.15 41.6102 160.99 41.7602 160.66 41.7602H155.85Z" fill="#666464"/>
<path d="M166.8 45.7202V47.3702H181.19V45.7202H175.26V43.4202H178.01C178.95 43.4202 179.43 42.9702 179.43 42.0602V35.7302H176.89V37.8102H171.09V35.7302H168.56V42.0602C168.56 42.9602 169.02 43.4202 169.97 43.4202H172.7V45.7202H166.8ZM171.59 41.7602C171.27 41.7602 171.1 41.6102 171.1 41.3102V39.4502H176.9V41.3102C176.9 41.6102 176.73 41.7602 176.41 41.7602H171.59Z" fill="#666464"/>
<path d="M182.55 45.7202V47.3902H196.94V45.7202H191V44.6102C192.04 44.4402 192.86 44.0602 193.42 43.4802C193.99 42.9002 194.28 42.1802 194.28 41.3202C194.28 40.5702 194.06 39.9302 193.62 39.3802H195.83V37.7002H183.61V39.3702H185.85C185.43 39.9202 185.21 40.5602 185.21 41.3102C185.21 42.1702 185.5 42.8902 186.06 43.4702C186.62 44.0502 187.43 44.4302 188.47 44.6002V45.7102H182.55V45.7202ZM188.28 42.5802C187.91 42.2502 187.73 41.8202 187.73 41.3102C187.73 40.7902 187.92 40.3702 188.28 40.0302C188.66 39.6902 189.14 39.5202 189.75 39.5202C190.35 39.5202 190.83 39.6902 191.2 40.0302C191.57 40.3702 191.76 40.7902 191.76 41.3102C191.76 41.8302 191.58 42.2502 191.2 42.5902C190.83 42.9302 190.35 43.1002 189.75 43.1002C189.13 43.1002 188.65 42.9302 188.28 42.5802Z" fill="#666464"/>
<path d="M192.75 35.1101H186.93V36.7701H192.75V35.1101Z" fill="#666464"/>
<path d="M87.5601 69.6301V54.8301H85.3101V60.5801H83.8201V54.8301H81.6401V69.4501H83.8201V62.2401H85.3101V69.6301H87.5601Z" fill="#666464"/>
<path d="M73.98 64.8901L75.29 66.2201C77.18 64.8501 78.55 63.3801 79.4 61.8001C80.25 60.2201 80.67 58.3801 80.67 56.2401C80.67 55.8101 80.58 55.5201 80.41 55.3501C80.25 55.1901 79.94 55.1101 79.49 55.1101H74.38V56.7701H77.73C78.03 56.7701 78.18 56.9201 78.18 57.2001C78.19 60.1101 76.78 62.6701 73.98 64.8901Z" fill="#666464"/>
<path d="M103.06 54.8301H100.51V64.9401H103.06V54.8301Z" fill="#666464"/>
<path d="M97.6501 61.87C98.4401 61.12 98.8301 60.12 98.8301 58.88C98.8301 57.65 98.4401 56.65 97.6501 55.91C96.8701 55.16 95.8101 54.78 94.4801 54.78C93.1601 54.78 92.1001 55.15 91.3001 55.91C90.5101 56.65 90.1201 57.65 90.1201 58.88C90.1201 60.12 90.5201 61.12 91.3001 61.87C92.1001 62.62 93.1601 62.99 94.4801 62.99C95.8201 62.99 96.8701 62.62 97.6501 61.87ZM92.5901 58.88C92.5901 58.24 92.7601 57.7 93.1101 57.28C93.4601 56.87 93.9201 56.65 94.4801 56.65C95.0401 56.65 95.5101 56.87 95.8601 57.28C96.2201 57.71 96.3801 58.24 96.3801 58.88C96.3801 59.53 96.2201 60.07 95.8601 60.5C95.5101 60.92 95.0501 61.13 94.4801 61.13C93.9101 61.13 93.4501 60.92 93.1101 60.5C92.7601 60.07 92.5901 59.53 92.5901 58.88Z" fill="#666464"/>
<path d="M93.91 69.3902H103.06V67.7102H95.74C95.43 67.7102 95.27 67.5802 95.27 67.3102V64.2202H92.73V68.2802C92.74 69.0202 93.13 69.3902 93.91 69.3902Z" fill="#666464"/>
<path d="M110.7 63.89C109.93 64.52 109.54 65.36 109.54 66.4C109.54 67.44 109.94 68.29 110.72 68.94C111.5 69.59 112.59 69.92 113.97 69.92C115.35 69.92 116.44 69.59 117.24 68.93C118 68.29 118.39 67.45 118.39 66.41C118.39 65.36 118 64.52 117.24 63.9C116.44 63.23 115.35 62.89 113.97 62.89C112.58 62.87 111.49 63.21 110.7 63.89ZM115.94 66.4C115.94 66.93 115.76 67.35 115.4 67.68C115.03 68 114.56 68.17 113.97 68.17C113.38 68.17 112.91 68 112.54 67.68C112.18 67.35 112.01 66.93 112.01 66.4C112.01 65.88 112.18 65.45 112.54 65.12C112.9 64.79 113.37 64.62 113.97 64.62C114.56 64.62 115.03 64.79 115.4 65.12C115.76 65.45 115.94 65.88 115.94 66.4Z" fill="#666464"/>
<path d="M118.47 54.76H115.95V57.63H113.19V59.24H115.95V62.83H118.47V54.76Z" fill="#666464"/>
<path d="M105.24 61.4202L106.27 62.9002C107.13 62.5702 107.9 62.1202 108.57 61.5202C109.23 60.9302 109.67 60.3302 109.9 59.7002C110.2 60.3102 110.69 60.8702 111.32 61.3902C111.97 61.9002 112.65 62.2602 113.38 62.4902L114.34 61.0402C112.19 60.1602 111.12 58.7402 111.12 56.7702V56.6102H113.88V54.9602H105.76V56.6102H108.53V56.8002C108.54 58.8902 107.44 60.4302 105.24 61.4202Z" fill="#666464"/>
<path d="M120.88 64.97V66.63H135.26V64.97H129.33V62.67H132.08C133.03 62.67 133.5 62.22 133.5 61.32V54.99H130.96V57.07H125.17V54.99H122.62V61.32C122.62 62.22 123.1 62.67 124.04 62.67H126.78V64.97H120.88ZM125.66 61.02C125.34 61.02 125.18 60.87 125.18 60.56V58.7H130.97V60.56C130.97 60.86 130.8 61.02 130.49 61.02H125.66Z" fill="#666464"/>
<path d="M146.8 57.07H141V54.99H138.47V61.32C138.47 62.22 138.93 62.67 139.88 62.67H142.62V64.97H136.69V66.63H151.08V64.97H145.15V62.67H147.9C148.85 62.67 149.31 62.22 149.31 61.32V54.99H146.79V57.07H146.8ZM146.8 60.56C146.8 60.86 146.63 61.02 146.3 61.02H141.5C141.17 61.02 141.01 60.87 141.01 60.56V58.7H146.81V60.56H146.8Z" fill="#666464"/>
<path d="M153.51 58.6302H155.73C155.3 59.1802 155.11 59.8202 155.11 60.5702C155.11 61.4302 155.4 62.1502 155.97 62.7302C156.53 63.3102 157.33 63.6902 158.39 63.8702L158.36 64.9702H152.45V66.6402H166.84V64.9702H160.91V63.8702C161.95 63.6902 162.76 63.3102 163.33 62.7302C163.9 62.1502 164.18 61.4202 164.18 60.5702C164.18 59.8202 163.96 59.1802 163.53 58.6302H165.74V56.9602H153.52V58.6302H153.51ZM158.18 59.2902C158.54 58.9502 159.02 58.7802 159.65 58.7802C160.23 58.7802 160.71 58.9502 161.1 59.2902C161.46 59.6302 161.65 60.0602 161.65 60.5702C161.65 61.0902 161.46 61.5202 161.1 61.8502C160.71 62.1902 160.23 62.3602 159.65 62.3602C159.02 62.3602 158.54 62.1902 158.18 61.8502C157.8 61.5102 157.63 61.0802 157.63 60.5702C157.63 60.0502 157.81 59.6202 158.18 59.2902Z" fill="#666464"/>
<path d="M176.84 67.4002V64.6602H174.31V68.3102C174.31 69.0602 174.69 69.4501 175.46 69.4501H185.26V67.7902H177.27C176.98 67.7902 176.84 67.6602 176.84 67.4002Z" fill="#666464"/>
<path d="M180.75 60.4202V56.1702C180.81 55.3602 180.43 54.9502 179.59 54.9502H172.89V56.6002H177.71C178.03 56.6002 178.19 56.7902 178.19 57.1702V60.4102H180.75V60.4202Z" fill="#666464"/>
<path d="M214.25 69.3V54.76H212.1V59.71H209.85V61.36H212.1V69.3H214.25Z" fill="#666464"/>
<path d="M205.56 62.23C205.14 63.31 204.39 64.29 203.33 65.17L204.64 66.41C205.28 65.98 205.87 65.42 206.39 64.72C206.93 64.02 207.26 63.34 207.41 62.68C207.6 63.35 207.96 64.03 208.49 64.72C208.99 65.42 209.53 65.95 210.08 66.32L211.37 65.08C209.5 63.6 208.57 61.45 208.57 58.6V58.48H210.98V56.77H203.78V58.48H206.19V58.6C206.17 60.05 205.97 61.26 205.56 62.23Z" fill="#666464"/>
<path d="M217.36 54.76H215.12V69.48H217.36V54.76Z" fill="#666464"/>
<path d="M232.95 54.76H230.68V69.48H232.95V54.76Z" fill="#666464"/>
<path d="M219.33 64.88L220.62 66.21C221.81 65.33 222.76 64.37 223.55 63.36H227.6V69.29H229.77V54.76H227.6V57.46H225.91C225.95 57.03 225.98 56.58 225.98 56.12C225.98 55.69 225.89 55.39 225.72 55.23C225.56 55.07 225.25 54.98 224.8 54.98H219.74V56.63H223.09C223.4 56.63 223.53 56.77 223.53 57.06C223.54 60.08 222.14 62.69 219.33 64.88ZM225.65 59.12H227.61V61.71H224.63C225.07 60.88 225.45 60.02 225.65 59.12Z" fill="#666464"/>
<path d="M242.97 54.7002C241.65 54.7002 240.6 55.0802 239.81 55.8202C239.02 56.5702 238.62 57.5502 238.62 58.7802C238.62 60.0202 239.01 61.0102 239.81 61.7602C240.59 62.5102 241.65 62.8702 242.97 62.8702C244.3 62.8702 245.35 62.5102 246.13 61.7602C246.91 61.0102 247.31 60.0202 247.31 58.7802C247.31 57.5502 246.91 56.5702 246.13 55.8202C245.35 55.0802 244.3 54.7002 242.97 54.7002ZM244.35 60.3902C244.01 60.8102 243.55 61.0202 242.97 61.0202C242.4 61.0202 241.95 60.8102 241.61 60.3902C241.26 59.9702 241.09 59.4402 241.09 58.7902C241.09 58.1502 241.26 57.6202 241.61 57.2002C241.96 56.7902 242.4 56.5702 242.97 56.5702C243.55 56.5702 244.01 56.7802 244.35 57.2002C244.7 57.6202 244.87 58.1502 244.87 58.7902C244.87 59.4402 244.7 59.9702 244.35 60.3902Z" fill="#666464"/>
<path d="M243.77 67.1801V64.1101H241.24V68.1601C241.24 68.8801 241.62 69.2501 242.4 69.2501H251.51V67.5801H244.23C243.92 67.5701 243.77 67.4401 243.77 67.1801Z" fill="#666464"/>
<path d="M251.51 54.76H248.99V64.82H251.51V54.76Z" fill="#666464"/>
<path d="M255.11 58.9901L255.59 60.5501C256.84 60.4201 257.98 60.1401 259.03 59.7001C260.08 59.2701 260.78 58.7501 261.16 58.1601C261.58 58.7601 262.34 59.2901 263.44 59.7701C264.51 60.2201 265.57 60.4801 266.67 60.5501L267.11 59.0101C264.47 58.6301 262.95 57.7701 262.55 56.4101H266.56V54.8201H255.66V56.4101H259.68C259.34 57.7401 257.81 58.6001 255.11 58.9901Z" fill="#666464"/>
<path d="M257.72 64.4701C256.96 65.0501 256.58 65.8201 256.58 66.8201C256.58 67.8001 256.96 68.5901 257.72 69.1701C258.52 69.7601 259.66 70.0701 261.13 70.0701C262.58 70.0701 263.71 69.7701 264.52 69.1701C265.28 68.5901 265.66 67.8101 265.66 66.8201C265.66 65.8301 265.28 65.0501 264.52 64.4701C263.71 63.8701 262.59 63.5701 261.13 63.5701C259.66 63.5701 258.52 63.8701 257.72 64.4701ZM263.25 66.8201C263.25 67.2901 263.05 67.6901 262.69 68.0201C262.31 68.3401 261.79 68.5001 261.13 68.5001C260.46 68.5001 259.94 68.3401 259.57 68.0201C259.2 67.6901 259 67.2901 259 66.8201C259 66.3501 259.19 65.9501 259.57 65.6201C259.95 65.3001 260.46 65.1401 261.13 65.1401C261.79 65.1401 262.3 65.3001 262.69 65.6201C263.05 65.9401 263.25 66.3401 263.25 66.8201Z" fill="#666464"/>
<path d="M268.31 61.3501H253.92V62.9701H268.31V61.3501Z" fill="#666464"/>
<path d="M162.65 54.3701H156.83V56.0301H162.65V54.3701Z" fill="#666464"/>
<path d="M176.57 58.6301H174.22V61.6501H172.07V63.3001H175.62C176.89 63.3001 180.57 63.0301 181.34 63.0301V61.3801C180.63 61.3801 177.71 61.6401 176.56 61.6401V58.6301H176.57Z" fill="#666464"/>
<path d="M182.15 65.57H184.69V60.42H186.93V58.77H184.69V54.76H182.15V65.57Z" fill="#666464"/>
<path d="M197.7 64.0802C197.19 64.0702 192.3 64.3002 191.99 64.2602C191.59 64.2002 191.39 64.0302 191.39 63.7602V61.0002H196.67V56.0302C196.73 55.3202 196.39 54.9702 195.69 54.9702H189V56.6302H193.72C193.99 56.6302 194.11 56.7802 194.11 57.0702V59.3702H188.85V64.1202C188.85 65.2402 189.32 65.8702 190.26 66.0002C190.74 66.0602 191.36 66.0902 192.12 66.0902C192.51 66.0902 197.34 65.8202 197.7 65.8102V64.0802Z" fill="#666464"/>
<path d="M201.12 54.76H198.59V69.48H201.12V54.76Z" fill="#666464"/>
<path d="M209.04 54.3501H205.65V56.0301H209.04V54.3501Z" fill="#666464"/>
<path d="M260.9 168.73C235.69 206.87 202.52 230.61 174.38 230.7H174.22C146.27 230.69 113.04 206.9 87.5001 168.61C86.4101 166.98 85.3601 165.36 84.3401 163.72H68.8701C72.7901 170.93 77.2101 178.06 82.1601 185.04C109.26 223.33 144.54 247.12 174.22 247.12H174.38C204.29 247.04 239.48 223.29 266.25 185.16C271.16 178.14 275.57 170.97 279.47 163.71H264.11C263.05 165.4 262.01 167.07 260.9 168.73Z" fill="url(#paint0_linear_85_2959)"/>
<path d="M72.23 43.44C72.33 43.14 72.45 42.84 72.55 42.54C109.05 37 146.11 29.85 173.97 16.27C201.9 29.7 239.01 36.63 275.53 41.96C275.64 42.27 275.75 42.57 275.86 42.87C278.93 51.44 280.72 60.58 281.28 70.07H295.79C295.21 58.89 293.13 48.11 289.51 37.99C288.91 36.35 288.25 34.62 287.5 32.71L285.94 28.81L281.78 28.21C243.7 22.77 204.66 15.79 177.24 1.72L173.93 0L170.6 1.73C143.26 15.96 104.27 23.16 66.22 28.83L62.06 29.45L60.54 33.34C59.79 35.23 59.14 36.97 58.55 38.63C55.06 48.55 53.08 59.11 52.54 70.06H67.05C67.58 60.77 69.28 51.83 72.23 43.44Z" fill="url(#paint1_linear_85_2959)"/>
<path d="M171.79 150.48H189.58L195.29 117.27C199.11 95.1301 190.85 84.0601 170.51 84.0601H107.08L95.7002 150.48H113.43L122.49 97.9001H142.77L133.76 150.48H151.5L160.55 97.9001H163.04C174.89 97.9001 179.47 105.81 176.74 121.62L171.79 150.48Z" fill="#374E65"/>
<path d="M11.45 84.0601L0 150.48H15.61L27.04 84.0601H11.45Z" fill="#374E65"/>
<path d="M91.0202 130.19C91.9702 124.65 91.2202 119.99 88.7402 116.21C86.0002 112.01 81.6402 109.9 75.6802 109.9H53.5502C51.7702 109.9 50.5202 109.34 49.7702 108.22C49.0102 107.1 48.7902 105.75 49.0502 104.16C49.3202 102.54 50.0602 101.12 51.2502 99.9201C52.4302 98.7101 53.8802 98.1101 55.5702 98.1101H93.1202L95.5302 84.0701H55.3902C49.4302 84.0701 44.3002 86.1701 40.0402 90.3801C36.2302 94.1501 33.8502 98.7401 32.9302 104.17C31.9802 109.68 32.7602 114.29 35.2802 118.02C38.0702 122.19 42.4702 124.27 48.4802 124.27H70.6602C72.3602 124.27 73.5402 124.84 74.2402 125.99C74.9302 127.13 75.1402 128.52 74.8602 130.15C74.5702 131.78 73.8702 133.22 72.7202 134.47C71.5802 135.72 70.2002 136.35 68.5902 136.35H27.3902L24.9502 150.49H68.6802C74.6602 150.49 79.7302 148.4 83.9202 144.19C87.7002 140.37 90.0602 135.71 91.0202 130.19Z" fill="#374E65"/>
<path d="M222.6 99.9201C223.79 98.7101 225.24 98.1101 226.94 98.1101H264.48L266.91 84.0701H226.75C220.78 84.0701 215.66 86.1701 211.4 90.3801C207.6 94.1501 205.22 98.7401 204.29 104.17C203.33 109.68 204.11 114.29 206.63 118.02C209.41 122.19 213.82 124.27 219.82 124.27H242.01C243.71 124.27 244.89 124.84 245.58 125.99C246.27 127.13 246.47 128.52 246.19 130.15C245.91 131.78 245.2 133.22 244.06 134.47C242.93 135.72 241.55 136.35 239.92 136.35H202.2L199.77 150.49H240.02C245.99 150.49 251.08 148.4 255.27 144.19C259.03 140.38 261.4 135.72 262.35 130.2C263.3 124.66 262.54 120 260.08 116.22C257.33 112.02 252.98 109.91 247 109.91H224.88C223.11 109.91 221.84 109.35 221.1 108.23C220.34 107.11 220.1 105.76 220.37 104.17C220.68 102.55 221.42 101.13 222.6 99.9201Z" fill="#374E65"/>
<path d="M331.02 84.0601H290.35L278.97 150.48H296.71L301.18 124.53H324.05C337.61 124.53 345.69 116.91 347.86 104.26C350.06 91.6201 344.58 84.0601 331.02 84.0601ZM331.44 105.32C330.76 109.3 326.78 112.53 322.55 112.53H303.12L305.59 98.1201H325.04C329.26 98.1201 332.13 101.35 331.44 105.32Z" fill="#005F8B"/>
<path d="M280.35 114.47C280.35 113.83 278.49 113.29 275.8 113.03C277.51 110.95 278.45 109.25 278 108.81C277.55 108.36 275.85 109.3 273.77 111.01C273.51 108.33 272.97 106.46 272.33 106.46C271.7 106.46 271.16 108.32 270.9 111C268.83 109.29 267.12 108.36 266.67 108.81C266.22 109.26 267.16 110.96 268.86 113.03C266.19 113.29 264.32 113.83 264.32 114.47C264.32 115.1 266.19 115.65 268.86 115.91C267.15 117.99 266.22 119.69 266.67 120.14C267.12 120.59 268.82 119.65 270.9 117.95C271.16 120.63 271.7 122.49 272.33 122.49C272.97 122.49 273.51 120.63 273.77 117.95C275.85 119.66 277.55 120.59 278 120.15C278.45 119.7 277.51 118 275.81 115.92C278.49 115.64 280.35 115.1 280.35 114.47Z" fill="#374E65"/>
</g>
<defs>
<linearGradient id="paint0_linear_85_2959" x1="68.8722" y1="205.426" x2="279.473" y2="205.426" gradientUnits="userSpaceOnUse">
<stop stop-color="#5FA224"/>
<stop offset="1" stop-color="#004E97"/>
</linearGradient>
<linearGradient id="paint1_linear_85_2959" x1="52.5366" y1="35.0298" x2="295.803" y2="35.0298" gradientUnits="userSpaceOnUse">
<stop stop-color="#5FA224"/>
<stop offset="1" stop-color="#004E97"/>
</linearGradient>
<clipPath id="clip0_85_2959">
<rect width="348.34" height="247.13" fill="white"/>
</clipPath>
</defs>
</svg>
