<svg width="211" height="30" viewBox="0 0 211 30" fill="none" xmlns="http://www.w3.org/2000/svg">
<path d="M102.065 5.54745C100.781 5.54745 100.245 6.00501 99.9817 7.20018L96.8875 26.3058H103.585L107.193 5.54745H102.065Z" fill="white"/>
<path d="M23.8312 5.53607H17.9873C17.0866 5.53607 16.5782 5.82183 15.9795 6.38063L9.29758 12.8824L10.9131 5.53607H5.61782C4.35471 5.53607 3.83579 5.98793 3.57983 7.15506L0 26.309H6.64163L8.47011 17.2871L14.6564 26.309H22.9306L14.6932 14.5716L23.8312 5.53607Z" fill="white"/>
<path d="M114.761 21.4397L117.493 5.54745H112.368C111.104 5.54745 110.565 5.98485 110.295 7.13181L107.191 26.3058H123.561L124.186 21.4397H114.761Z" fill="white"/>
<path d="M36.2461 0.0548019C29.4017 0.638861 24.0356 5.69462 22.758 12.0828C26.4084 8.81569 33.3988 7.64757 44.0762 11.3162C46.4854 12.1375 48.6939 13.0136 50.7199 13.9262C52.5633 14.7475 54.4433 15.7331 56.3962 16.8648C60.4299 19.1827 64.9381 22.4133 68.5702 26.301H78.5722L85.581 12.028L88.2457 26.301H95.3457L90.9835 5.54861H84.4311C83.409 5.54861 82.9709 5.84064 82.5147 6.57071L73.9363 23.5449L68.0227 18.1971C70.7057 17.4488 73.699 15.3864 74.5203 11.9185C76.017 5.78588 70.8335 5.53036 69.0995 5.53036H59.5903C58.3492 5.53036 58.1301 5.80413 57.8746 6.9175L56.0494 15.5324C51.3769 12.4843 40.7726 6.31519 33.3076 6.22393C31.4459 6.20568 30.0587 6.47945 28.7446 7.30079C28.5438 7.42855 28.4891 7.4103 28.4526 7.39205L28.5621 7.19128C29.3652 6.20568 31.0078 4.61777 33.7639 3.77818C33.7639 3.77818 38.1626 2.24502 44.0762 5.82239C47.5075 7.9031 49.8255 9.65528 52.0705 11.517C50.4643 4.87329 44.5325 4.57764e-05 37.542 4.57764e-05C37.1222 4.57764e-05 36.6842 0.0182972 36.2461 0.0548019ZM64.3358 8.74268H66.7998C66.7998 8.74268 69.282 8.59667 68.3877 11.9185C68.3877 11.9185 67.4203 15.8792 62.8574 15.8792C63.0581 14.8753 64.1898 9.4545 64.3358 8.74268Z" fill="white"/>
<path d="M28.2295 13.9938C28.2295 13.9938 24.7963 15.5923 24.5601 19.4978C24.3422 23.3125 27.2304 25.9464 27.2304 25.9464L27.2486 25.9646C30.2639 28.7802 34.4056 30.3242 38.8378 29.9427C45.6497 29.3614 50.9175 24.2571 52.1891 17.8993C52.6977 18.0265 53.7876 18.3353 55.3316 18.8439L53.7513 26.3097H60.7266C60.7266 26.3097 61.2897 23.367 61.8347 21.0419C57.8747 18.6441 53.6604 16.9911 53.6604 16.9911C46.1765 13.794 40.0004 12.577 35.3865 12.577C32.2621 12.577 29.8462 13.1401 28.2295 13.9938Z" fill="white"/>
<path d="M142.769 20.3644C143.089 20.72 143.332 21.1111 143.498 21.5378C143.676 21.9526 143.764 22.3852 143.764 22.8356C143.764 23.4756 143.646 24.0622 143.409 24.5956C143.184 25.1289 142.864 25.5852 142.449 25.9644C142.022 26.3437 141.513 26.6341 140.92 26.8356C140.339 27.0489 139.699 27.1556 139 27.1556C138.301 27.1556 137.655 27.0489 137.062 26.8356C136.481 26.6341 135.984 26.3437 135.569 25.9644C135.142 25.5852 134.81 25.1289 134.573 24.5956C134.348 24.0622 134.236 23.4756 134.236 22.8356C134.236 22.3852 134.319 21.9526 134.484 21.5378C134.65 21.1111 134.893 20.72 135.213 20.3644H132.12V18.4978H145.88V20.3644H142.769ZM139 20.4356C138.206 20.4356 137.578 20.6667 137.116 21.1289C136.653 21.5793 136.422 22.1481 136.422 22.8356C136.422 23.523 136.653 24.0978 137.116 24.56C137.578 25.0104 138.206 25.2356 139 25.2356C139.806 25.2356 140.434 25.0104 140.884 24.56C141.347 24.0978 141.578 23.523 141.578 22.8356C141.578 22.1481 141.347 21.5793 140.884 21.1289C140.434 20.6667 139.806 20.4356 139 20.4356ZM139 15.3156C138.55 16.0622 137.791 16.6252 136.724 17.0044C135.658 17.3837 134.366 17.5911 132.849 17.6267V15.6889C133.596 15.677 134.277 15.6059 134.893 15.4756C135.51 15.3452 136.043 15.1496 136.493 14.8889C136.944 14.64 137.293 14.3259 137.542 13.9467C137.803 13.5556 137.933 13.0874 137.933 12.5422H140.067C140.067 13.0874 140.191 13.5556 140.44 13.9467C140.701 14.3259 141.05 14.64 141.489 14.8889C141.939 15.1496 142.479 15.3452 143.107 15.4756C143.735 15.6059 144.416 15.677 145.151 15.6889V17.6267C143.622 17.5911 142.324 17.3837 141.258 17.0044C140.191 16.6252 139.439 16.0622 139 15.3156ZM152.387 19.2089C152.161 19.6948 151.883 20.1274 151.551 20.5067C151.231 20.8741 150.864 21.1941 150.449 21.4667C150.034 21.7393 149.596 21.9704 149.133 22.16C148.683 22.3496 148.227 22.4919 147.764 22.5867V20.5956C148.274 20.477 148.742 20.2756 149.169 19.9911C149.596 19.6948 149.969 19.3096 150.289 18.8356C150.609 18.3852 150.858 17.8341 151.036 17.1822C151.213 16.5185 151.308 15.7481 151.32 14.8711H148.28V12.9511H151.32V11.6178H153.471V12.9511H156.511V14.8711H153.471C153.471 15.7481 153.56 16.5185 153.738 17.1822C153.916 17.8341 154.159 18.3852 154.467 18.8356C154.787 19.3096 155.16 19.6948 155.587 19.9911C156.025 20.2756 156.499 20.477 157.009 20.5956V22.5867C156.547 22.4919 156.084 22.3496 155.622 22.16C155.16 21.9704 154.721 21.7393 154.307 21.4667C153.904 21.1941 153.536 20.8741 153.204 20.5067C152.873 20.1274 152.6 19.6948 152.387 19.2089ZM162.644 18.4622H160.387V26.4089H158.253V12.5422H160.387V16.5422H162.644V18.4622ZM167.356 22.2489V19.1556H163.729V17.2356H170.769V14.4622H164.12V12.5422H171.782C172.138 12.5422 172.416 12.6489 172.618 12.8622C172.819 13.0637 172.92 13.3363 172.92 13.68V17.2356H173.809V19.1556H169.489V22.2489H167.356ZM174.804 22.7289V21.68H171.196V19.76H174.804V12.5422H176.956V22.7289H174.804ZM167.089 21.7867V24.4889H177.027V26.4089H166.609C166.087 26.4089 165.679 26.243 165.382 25.9111C165.086 25.5793 164.938 25.1822 164.938 24.72V21.7867H167.089ZM183.178 12.3644C183.806 12.3644 184.387 12.5067 184.92 12.7911C185.453 13.0756 185.904 13.4548 186.271 13.9289H188.173V12.5422H190.307V26.4089H188.173V20.0089H186.271C185.904 20.5067 185.453 20.8919 184.92 21.1644C184.387 21.437 183.806 21.5733 183.178 21.5733C182.585 21.5733 182.04 21.4607 181.542 21.2356C181.056 20.9985 180.636 20.6785 180.28 20.2756C179.913 19.8489 179.628 19.357 179.427 18.8C179.225 18.243 179.124 17.6326 179.124 16.9689C179.124 16.317 179.225 15.7126 179.427 15.1556C179.628 14.5985 179.913 14.1126 180.28 13.6978C180.636 13.283 181.056 12.957 181.542 12.72C182.04 12.483 182.585 12.3644 183.178 12.3644ZM187.107 15.8489C187.142 16.0267 187.172 16.2104 187.196 16.4C187.219 16.5896 187.231 16.7793 187.231 16.9689C187.231 17.1585 187.219 17.3541 187.196 17.5556C187.172 17.7452 187.142 17.923 187.107 18.0889H188.173V15.8489H187.107ZM183.178 14.2844C182.609 14.2844 182.147 14.5452 181.791 15.0667C181.447 15.5881 181.276 16.2222 181.276 16.9689C181.276 17.7274 181.447 18.3674 181.791 18.8889C182.147 19.3985 182.609 19.6533 183.178 19.6533C183.735 19.6533 184.191 19.3985 184.547 18.8889C184.902 18.3674 185.08 17.7274 185.08 16.9689C185.08 16.2222 184.902 15.5881 184.547 15.0667C184.191 14.5452 183.735 14.2844 183.178 14.2844ZM191.16 26.4089V12.5422H193.311V26.4089H191.16ZM203.818 26.4089V12.5422H205.969V16.7022H207.16V12.5422H209.311V26.4089H207.16V18.6222H205.969V26.4089H203.818ZM198.271 14.4622V20.6489H200.636V14.4622H198.271ZM202.769 22.5689H197.649C197.222 22.5689 196.861 22.397 196.564 22.0533C196.268 21.7096 196.12 21.283 196.12 20.7733V12.5422H202.769V22.5689Z" fill="white"/>
</svg>
