<svg width="21" height="21" viewBox="0 0 21 21" fill="none" xmlns="http://www.w3.org/2000/svg">
<path d="M9.44444 13.1389C9.44444 14.5955 11.8078 15.7778 14.7222 15.7778C17.6366 15.7778 20 14.5955 20 13.1389M1 7.8611C1 9.31777 3.36339 10.5 6.27778 10.5C7.46633 10.5 8.56306 10.3037 9.44444 9.97222M1 11.5555C1 13.0122 3.36339 14.1944 6.27778 14.1944C7.46633 14.1944 8.562 13.9981 9.44444 13.6667M14.7222 11.5555C11.8078 11.5555 9.44444 10.3733 9.44444 8.91666C9.44444 7.45999 11.8078 6.27777 14.7222 6.27777C17.6366 6.27777 20 7.45999 20 8.91666C20 10.3733 17.6366 11.5555 14.7222 11.5555Z" stroke="black" stroke-width="1.8" stroke-linecap="round" stroke-linejoin="round"/>
<path d="M1 3.63892V15.25C1 16.7067 3.36339 17.8889 6.27778 17.8889C7.46633 17.8889 8.562 17.6926 9.44444 17.3611M9.44444 17.3611V8.91669M9.44444 17.3611C9.44444 18.8178 11.8078 20 14.7222 20C17.6366 20 20 18.8178 20 17.3611V8.91669M11.5556 6.80558V3.63892" stroke="black" stroke-width="1.8" stroke-linecap="round" stroke-linejoin="round"/>
<path d="M6.27778 6.27778C3.36339 6.27778 1 5.09556 1 3.63889C1 2.18222 3.36339 1 6.27778 1C9.19217 1 11.5556 2.18222 11.5556 3.63889C11.5556 5.09556 9.19217 6.27778 6.27778 6.27778Z" stroke="black" stroke-width="1.8" stroke-linecap="round" stroke-linejoin="round"/>
</svg>
