<svg width="17" height="25" viewBox="0 0 17 25" fill="none" xmlns="http://www.w3.org/2000/svg">
<path d="M2.96945 22.7222C2.42753 22.7222 1.96401 22.5199 1.57889 22.1153C1.19378 21.7106 1.00081 21.2251 1 20.6586V7.38889C1 6.82156 1.19296 6.336 1.57889 5.93222C1.96401 5.52674 2.42712 5.324 2.96823 5.324H5.59457V3.06361C5.59457 2.49628 5.78713 2.01072 6.17225 1.60694C6.55736 1.20317 7.02047 1.00085 7.56159 1H9.43842C9.97953 1 10.4426 1.20231 10.8278 1.60694C11.2129 2.01157 11.4058 2.49713 11.4066 3.06361V5.32528H14.0318C14.5729 5.32528 15.036 5.52717 15.4211 5.93094C15.807 6.33557 16 6.82156 16 7.38889V20.6586C16 21.2259 15.807 21.7115 15.4211 22.1153C15.0352 22.5191 14.5725 22.7214 14.033 22.7222V23.0161C14.033 23.2802 13.9396 23.5102 13.7527 23.7061C13.5658 23.902 13.3464 24 13.0946 24C12.8427 24 12.6233 23.902 12.4365 23.7061C12.2496 23.5102 12.1566 23.2802 12.1574 23.0161V22.7222H4.84384V23.0161C4.84384 23.2802 4.75041 23.5102 4.56354 23.7061C4.37667 23.902 4.1573 24 3.90543 24C3.65356 24 3.4346 23.902 3.24854 23.7061C3.06248 23.5102 2.96904 23.2802 2.96823 23.0161L2.96945 22.7222ZM2.96945 21.4444H14.0318C14.2503 21.4444 14.4299 21.3708 14.5704 21.2234C14.711 21.076 14.7813 20.8878 14.7813 20.6586V7.38889C14.7813 7.15889 14.711 6.97063 14.5704 6.82411C14.4299 6.67674 14.2499 6.60306 14.0306 6.60306H2.96945C2.75008 6.60306 2.57012 6.67674 2.42956 6.82411C2.289 6.97148 2.21872 7.15974 2.21872 7.38889V20.6586C2.21872 20.8878 2.289 21.076 2.42956 21.2234C2.57012 21.3708 2.75008 21.4444 2.96945 21.4444ZM6.20271 8.86344C6.02966 8.86344 5.88503 8.92435 5.76885 9.04617C5.65267 9.16798 5.59457 9.32004 5.59457 9.50233V18.5452C5.59457 18.7258 5.65267 18.8774 5.76885 19.0001C5.88585 19.1227 6.03087 19.1841 6.20393 19.1841C6.37699 19.1841 6.52161 19.1227 6.6378 19.0001C6.75398 18.8774 6.81248 18.7258 6.81329 18.5452V9.50233C6.81329 9.32089 6.75439 9.16926 6.63658 9.04744C6.51877 8.92563 6.37415 8.8643 6.20271 8.86344ZM10.7961 8.86344C10.623 8.86344 10.4784 8.92478 10.3622 9.04744C10.2452 9.16926 10.1867 9.32089 10.1867 9.50233V18.5452C10.1867 18.7258 10.2456 18.8774 10.3634 19.0001C10.4812 19.1227 10.6259 19.1841 10.7973 19.1841C10.9687 19.1841 11.1133 19.1227 11.2312 19.0001C11.349 18.8774 11.4075 18.7258 11.4066 18.5452V9.50233C11.4066 9.32089 11.3481 9.16926 11.2312 9.04744C11.1142 8.92478 10.9691 8.86344 10.7961 8.86344ZM6.81329 5.324H10.1879V3.06489C10.1879 2.83574 10.1176 2.64748 9.97709 2.50011C9.83653 2.35274 9.65657 2.27863 9.4372 2.27778H7.56281C7.34344 2.27778 7.16388 2.35146 7.02413 2.49883C6.88357 2.6462 6.81329 2.83489 6.81329 3.06489V5.324Z" fill="black" stroke="black"/>
</svg>
