<svg width="26" height="21" viewBox="0 0 26 21" fill="none" xmlns="http://www.w3.org/2000/svg">
<path d="M9.07324 18.8636C8.96973 18.6324 8.9492 18.3985 9.0166 18.1693L9.05078 18.0717L9.05176 18.0697L9.09668 17.9779C9.20908 17.7724 9.38508 17.6201 9.61719 17.5219C9.88509 17.4086 10.1632 17.3994 10.4424 17.4935L10.4463 17.4955C10.8398 17.6427 11.2288 17.7441 11.6123 17.8011L11.6123 17.8021C11.9975 17.8609 12.4049 17.89 12.834 17.89C13.8248 17.89 14.7717 17.6992 15.6758 17.3177L16.0107 17.1674C16.78 16.7991 17.4722 16.3067 18.0879 15.6898L18.249 15.5238C19.0365 14.6828 19.5614 13.6936 19.8242 12.5541C20.0813 11.4396 20.2165 10.3016 20.2344 9.14001L18.3555 11.0189C18.1358 11.2357 17.8905 11.3578 17.6221 11.3578C17.3535 11.3578 17.1091 11.235 16.8906 11.0179C16.6959 10.8245 16.5826 10.6053 16.5684 10.3627L16.5684 10.2582C16.5824 9.98709 16.6918 9.75004 16.8896 9.55212L19.9355 6.50622L20.0703 6.38318C20.3897 6.1153 20.7581 5.97793 21.1719 5.9779C21.6448 5.9779 22.06 6.15655 22.4102 6.50525L22.4102 6.50622L25.457 9.5531C25.6735 9.7726 25.7958 10.0174 25.7959 10.2855C25.7959 10.5541 25.6731 10.7994 25.4561 11.0179C25.2351 11.2403 24.9798 11.3565 24.6953 11.3402C24.4237 11.3247 24.1871 11.2147 23.9902 11.0179L22.3105 9.34119C22.2819 10.5248 22.1387 11.6945 21.876 12.85L21.7432 13.3939C21.3643 14.8549 20.6337 16.1111 19.5527 17.1595L19.5518 17.1595C18.7691 17.9417 17.8861 18.5686 16.9023 19.0385L16.4736 19.2299C15.3151 19.7149 14.0977 19.9583 12.8223 19.9584C12.28 19.9584 11.7478 19.9096 11.2266 19.8119L10.8379 19.7318C10.4503 19.6454 10.0664 19.5391 9.68652 19.4125L9.58301 19.3724C9.3509 19.2696 9.17866 19.0989 9.07324 18.8636ZM0.849609 10.5248C0.848009 10.2538 0.96994 10.0081 1.1875 9.79041C1.40857 9.56933 1.66407 9.45396 1.94824 9.47009C2.2174 9.48547 2.45402 9.58814 2.65137 9.77478L2.6543 9.77771L4.34277 11.4681C4.36996 10.0978 4.55293 8.74688 4.89453 7.41638L4.96875 7.1449C5.36038 5.79904 6.06419 4.63017 7.07812 3.64001L7.42285 3.31091C8.24093 2.56726 9.15724 1.98626 10.1709 1.56775C11.3294 1.08945 12.547 0.849975 13.8223 0.849975C14.3644 0.84999 14.9045 0.898932 15.4424 0.996459L15.4434 0.996459C15.9794 1.09503 16.5011 1.22892 17.0078 1.39783C17.2938 1.49236 17.497 1.67823 17.6035 1.95154C17.7062 2.21506 17.7074 2.47987 17.6035 2.73767L17.6025 2.7406C17.496 2.99319 17.3002 3.17467 17.0312 3.2865C16.7604 3.399 16.4815 3.40914 16.2012 3.31677L16.1953 3.31482L16.248 3.17419L16.1953 3.31384C15.8019 3.16534 15.4141 3.06321 15.0322 3.00622C14.6469 2.94875 14.2389 2.92029 13.8096 2.92029L13.4404 2.9281C12.5832 2.9688 11.7597 3.15688 10.9687 3.4906C10.1773 3.82458 9.462 4.28117 8.82324 4.86169L8.55371 5.11853C7.7316 5.94078 7.17257 6.91188 6.87598 8.03455L6.82031 8.26111C6.56443 9.37791 6.42473 10.5174 6.40039 11.6791L8.29102 9.7904L8.37305 9.71326C8.56813 9.54338 8.7862 9.44958 9.02441 9.44958C9.2963 9.4497 9.54215 9.5723 9.75879 9.7904C9.97825 10.0115 10.0927 10.2667 10.0781 10.5502C10.0658 10.7884 9.98027 11 9.82617 11.181L9.75586 11.2562L6.70996 14.3021C6.36114 14.6522 5.9467 14.8324 5.47363 14.8324C5.00071 14.8323 4.58632 14.652 4.23633 14.3021L1.1875 11.2562L1.1875 11.2552L1.11133 11.1732C0.944066 10.9777 0.851031 10.7609 0.849609 10.5248Z" fill="black" stroke="black" stroke-width="0.3"/>
</svg>
