<svg width="20" height="24" viewBox="0 0 20 24" fill="none" xmlns="http://www.w3.org/2000/svg">
<path fill-rule="evenodd" clip-rule="evenodd" d="M10 24L17.0711 16.9705C18.4696 15.5802 19.422 13.8089 19.8079 11.8805C20.1937 9.95211 19.9957 7.95329 19.2388 6.13679C18.4819 4.3203 17.2002 2.76771 15.5557 1.67537C13.9112 0.583034 11.9778 0 10 0C8.02219 0 6.0888 0.583034 4.44431 1.67537C2.79982 2.76771 1.5181 4.3203 0.761221 6.13679C0.00434094 7.95329 -0.193699 9.95211 0.192143 11.8805C0.577985 13.8089 1.53038 15.5802 2.92889 16.9705L10 24ZM10 13C11.6569 13 13 11.6569 13 10C13 8.34315 11.6569 7 10 7C8.34315 7 7 8.34315 7 10C7 11.6569 8.34315 13 10 13Z" fill="black"/>
</svg>
