<svg width="24" height="24" viewBox="0 0 24 24" fill="none" xmlns="http://www.w3.org/2000/svg">
<path fill-rule="evenodd" clip-rule="evenodd" d="M2 4C1.44772 4 1 4.44771 1 5V22C1 22.5523 1.44772 23 2 23H22C22.5523 23 23 22.5523 23 22V5C23 4.44772 22.5523 4 22 4H2ZM21 9H3V21H21V9Z" fill="white"/>
<rect x="4" y="2" width="2" height="4" fill="white"/>
<rect x="8.66663" y="2" width="2" height="4" fill="white"/>
<rect x="13.3334" y="2" width="2" height="4" fill="white"/>
<rect x="18" y="2" width="2" height="4" fill="white"/>
<rect x="6" y="12" width="2" height="2" fill="white"/>
<rect x="6" y="16" width="2" height="2" fill="white"/>
<rect x="11" y="12" width="2" height="2" fill="white"/>
<rect x="11" y="16" width="2" height="2" fill="white"/>
<rect x="16" y="12" width="2" height="2" fill="white"/>
<rect x="16" y="16" width="2" height="2" fill="white"/>
</svg>
