<svg width="24" height="24" viewBox="0 0 24 24" fill="none" xmlns="http://www.w3.org/2000/svg">
<path fill-rule="evenodd" clip-rule="evenodd" d="M12 24L19.0711 16.9705C20.4696 15.5802 21.422 13.8089 21.8079 11.8805C22.1937 9.95211 21.9957 7.95329 21.2388 6.13679C20.4819 4.3203 19.2002 2.76771 17.5557 1.67537C15.9112 0.583034 13.9778 0 12 0C10.0222 0 8.0888 0.583034 6.44431 1.67537C4.79982 2.76771 3.5181 4.3203 2.76122 6.13679C2.00434 7.95329 1.8063 9.95211 2.19214 11.8805C2.57798 13.8089 3.53038 15.5802 4.92889 16.9705L12 24ZM12 13C13.6569 13 15 11.6569 15 10C15 8.34315 13.6569 7 12 7C10.3431 7 9 8.34315 9 10C9 11.6569 10.3431 13 12 13Z" fill="white"/>
</svg>
